<?xml version="1.0" encoding="UTF-8" standalone="no"?>
<!-- Created with Inkscape (http://www.inkscape.org/) -->

<svg
   xmlns:dc="http://purl.org/dc/elements/1.1/"
   xmlns:cc="http://creativecommons.org/ns#"
   xmlns:rdf="http://www.w3.org/1999/02/22-rdf-syntax-ns#"
   xmlns:svg="http://www.w3.org/2000/svg"
   xmlns="http://www.w3.org/2000/svg"
   xmlns:sodipodi="http://sodipodi.sourceforge.net/DTD/sodipodi-0.dtd"
   xmlns:inkscape="http://www.inkscape.org/namespaces/inkscape"
   width="210mm"
   height="297mm"
   viewBox="0 0 744.09448819 1052.3622047"
   id="svg3519"
   version="1.1"
   inkscape:version="0.91 r13725"
   sodipodi:docname="pswitcher.svg">
  <defs
     id="defs3521" />
  <sodipodi:namedview
     id="base"
     pagecolor="#ffffff"
     bordercolor="#666666"
     borderopacity="1.0"
     inkscape:pageopacity="0.0"
     inkscape:pageshadow="2"
     inkscape:zoom="0.24748737"
     inkscape:cx="-108.38847"
     inkscape:cy="616.86504"
     inkscape:document-units="px"
     inkscape:current-layer="layer1"
     showgrid="false"
     inkscape:window-width="1366"
     inkscape:window-height="704"
     inkscape:window-x="0"
     inkscape:window-y="27"
     inkscape:window-maximized="1" />
  <metadata
     id="metadata3524">
    <rdf:RDF>
      <cc:Work
         rdf:about="">
        <dc:format>image/svg+xml</dc:format>
        <dc:type
           rdf:resource="http://purl.org/dc/dcmitype/StillImage" />
        <dc:title />
      </cc:Work>
    </rdf:RDF>
  </metadata>
  <g
     inkscape:label="Layer 1"
     inkscape:groupmode="layer"
     id="layer1">
    <path
       style="fill:#000000;fill-opacity:1;stroke:#000000;stroke-width:3.10687685;stroke-miterlimit:4;stroke-dasharray:none;stroke-opacity:1"
       d="M 333.9153,1049.5762 C 269.43464,1028.8303 249.76925,1011.5806 149.23922,887.58647 93.32288,818.61901 71.888994,787.21048 54.543906,748.82481 31.799318,698.48935 20.423237,646.09464 7.773356,533.41535 2.0713483,482.62327 0.89391781,455.80401 0.78628731,374.26958 0.66912771,288.10551 1.4938239,270.1649 7.5564507,226.37653 24.527819,103.79758 41.792998,64.896854 90.192746,40.187324 118.52673,25.722143 141.85605,19.083586 189.11456,12.037547 239.3094,4.5539804 498.79469,4.5777249 550.41959,12.07071 c 39.03045,5.664886 81.20731,17.433525 100.75716,28.11374 41.3275,22.577706 62.38637,67.2232 76.15603,161.45278 16.76194,114.70868 17.41369,195.24918 2.72391,336.60045 -10.9249,105.12385 -22.75357,158.90436 -46.44386,211.16209 -17.58565,38.79148 -39.3923,70.45156 -101.78943,147.78263 -63.90675,79.20253 -98.9731,115.7644 -124.95988,130.2895 -19.61619,10.9643 -69.91323,29.9926 -72.3582,27.3743 -0.61359,-0.6575 0.88269,-7.2594 3.32442,-14.6714 6.85543,-20.8072 13.63779,-63.24974 13.63779,-85.34176 0,-10.96881 -2.02939,-36.42188 -4.50998,-56.5624 l -4.51031,-36.61897 12.20796,-18.63634 12.20783,-18.63667 -46.90521,0 c -36.69021,0 -46.42826,0.87505 -44.71576,4.01891 1.2041,2.21036 6.01252,10.06653 10.68534,17.45843 9.30423,14.71773 10.20918,23.79082 5.39463,54.0769 -6.8226,42.91548 -1.90794,109.8831 10.37437,141.3619 6.79268,17.4093 8.34394,16.687 -17.7811,8.2814 z m 6.23684,-336.11707 c 16.09934,-21.43499 24.85923,-30.54327 29.37384,-30.54327 4.54547,0 13.03835,8.96366 28.93946,30.54327 l 22.50612,30.54296 66.65966,0 c 37.66142,0 73.44539,-1.55749 82.25842,-3.58239 19.66574,-4.51636 35.67276,-19.76708 52.62847,-50.1425 10.60838,-19.00428 34.14753,-71.93699 34.14753,-76.78794 0,-0.88003 -8.82319,-1.1706 -19.60713,-0.64756 l -19.60739,0.95143 -10.3493,25.52314 c -10.71922,26.43572 -21.80581,43.58016 -35.00546,54.13335 -6.55292,5.23916 -13.48305,6.20038 -47.8633,6.63823 -37.14142,0.47323 -41.22952,-0.0664 -53.71169,-7.18351 -18.52878,-10.55386 -37.71663,-27.84991 -45.11246,-40.66462 l -6.16864,-10.68834 -12.6392,6.14442 c -17.91751,8.71045 -55.80534,8.51053 -74.13207,-0.39021 -10.27415,-4.99059 -13.75922,-5.56061 -14.73992,-2.40978 -3.09279,9.93585 -32.63784,38.7508 -48.03509,46.84822 -15.88813,8.35528 -18.9917,8.82999 -54.82022,8.38318 -25.02219,-0.31215 -40.89803,-1.96811 -46.53624,-4.8536 -10.738,-5.49637 -28.17879,-33.04555 -38.86099,-61.38546 l -8.18006,-21.70149 -19.03787,0 c -13.564702,0 -19.037741,1.19551 -19.037741,4.15638 0,7.55364 35.255741,80.75355 46.383491,96.30381 19.99247,27.93807 30.28192,30.61237 119.39959,31.03477 l 68.20734,0.32213 22.94085,-30.54313 z m 66.10861,-76.55099 c 4.79473,-2.68822 11.75744,-7.96026 15.47275,-11.71599 l 6.75522,-6.82802 0,9.7703 c 0,8.83 0.91633,9.77064 9.52125,9.77064 11.57348,0 20.50214,-7.96176 20.50214,-18.282 0,-9.61722 -7.28959,-12.75759 -18.80635,-8.10257 -8.85476,3.57906 -8.9014,3.53721 -7.06305,-6.30599 1.0184,-5.45004 1.85076,-24.19629 1.85076,-41.65786 0,-17.46193 1.12162,-31.74876 2.49056,-31.74876 4.63744,0 39.7112,36.03515 44.27755,45.49164 4.19516,8.68703 4.05192,10.31458 -1.90609,21.66679 -10.91511,20.79688 -2.35741,35.97572 9.00394,15.97019 15.41627,-27.14656 9.67447,-52.22768 -19.74738,-86.25853 -25.5103,-29.50668 -45.02407,-85.05058 -47.87734,-136.27901 -0.90011,-16.16014 -2.37144,-32.99922 -3.26946,-37.41961 l -1.63256,-8.03782 -2.74784,7.71303 c -8.52813,23.93909 -8.73471,78.86846 -0.76322,203.10501 1.3049,20.3396 0.78525,34.63193 -1.53132,42.14986 -3.21238,10.42335 -5.0933,11.83538 -22.47607,16.87412 -17.30983,5.01749 -20.496,5.07196 -36.4072,0.62433 -9.59062,-2.68209 -18.57576,-6.7626 -19.96695,-9.06778 -6.83803,-11.33178 -8.54612,-28.7467 -5.51284,-56.20308 5.58045,-50.51328 7.27404,-148.34103 3.06926,-177.28582 -2.10142,-14.46533 -4.82212,-26.30038 -6.04628,-26.30038 -1.22394,0 -3.1813,15.28209 -4.34969,33.96012 -2.4169,38.63656 -6.39411,57.21262 -20.80498,97.17087 -7.9983,22.1777 -13.73602,32.23411 -27.03,47.37473 -23.22539,26.45166 -30.21431,42.41504 -27.86595,63.64962 1.90328,17.20804 10.08079,32.73256 17.24209,32.73256 6.68167,0 6.65464,-10.48462 -0.058,-22.11377 -3.42695,-5.93754 -6.23069,-12.71741 -6.23069,-15.06609 0,-8.1919 16.36786,-29.47047 33.57711,-43.65104 l 17.33675,-14.2857 -0.46743,37.91295 c -0.62521,50.7127 4.44361,61.12294 35.89694,73.73938 14.08806,5.65128 53.28565,3.81883 65.56286,-3.06449 z m -95.36634,-6.52382 c 2.5075,-14.16364 -25.9572,-29.56446 -30.61542,-16.56447 -2.21102,6.16967 2.48907,19.64955 7.65682,21.96119 8.40218,3.75873 21.89937,0.58614 22.9586,-5.39672 z m -59.54315,-226.2041 c 7.43075,-3.75157 17.56362,-10.54438 22.51737,-15.0953 l 9.00719,-8.27426 -7.50579,-6.31576 c -21.19578,-17.83436 -86.13438,-30.68328 -116.13039,-22.97739 -14.7876,3.79874 -48.99793,28.8196 -48.99793,35.83625 0,4.14908 30.24889,18.71172 46.50167,22.38741 6.62404,1.49771 27.58098,2.39435 46.5706,1.99185 27.96546,-0.59277 37.09421,-2.02838 48.03728,-7.5528 z m 330.4754,5.1045 c 15.57268,-3.5764 47.81804,-17.4106 47.81804,-20.51511 0,-3.48243 -25.20207,-26.03074 -35.61588,-31.86532 -15.81729,-8.86239 -46.9158,-10.37936 -76.49669,-3.73182 -25.1296,5.64728 -56.4804,19.8174 -58.27977,26.3419 -1.62225,5.88224 22.89446,24.56092 37.93294,28.90062 17.53463,5.05967 64.30437,5.54037 84.64136,0.87007 z M 305.5907,284.13475 c 7.56402,-4.3352 7.65543,-20.71485 0.18792,-33.82727 -7.6647,-13.45945 -37.07102,-29.12429 -92.96719,-49.524 -67.80994,-24.74756 -86.74272,-23.9718 -125.511265,5.14202 -18.142872,13.62499 -44.576918,42.45754 -41.725158,45.5114 0.802659,0.85845 8.686227,-3.77017 17.521162,-10.2862 37.855101,-27.91931 75.644701,-28.38638 140.185561,-1.73316 13.19979,5.45102 30.42844,14.9037 38.28602,21.00611 18.4651,14.34013 42.43318,26.96788 51.26231,27.0079 3.82388,0.0165 9.5659,-1.46616 12.76007,-3.2968 z m 157.51617,-1.32834 c 5.72357,-2.56087 18.85992,-11.11575 29.19184,-19.01076 10.33191,-7.89518 29.42986,-18.88274 42.43967,-24.41713 61.07931,-25.98258 103.72573,-25.90886 138.58371,0.23911 9.38716,7.04172 17.73718,12.08594 18.55537,11.20972 3.48121,-3.72799 -22.71213,-32.21533 -42.94677,-46.70806 -40.10803,-28.72661 -59.77689,-28.30653 -139.40566,2.97698 -53.81041,21.14043 -69.16138,30.1642 -78.13979,45.93281 -15.29123,26.85547 1.99204,43.07905 31.72163,29.777 z"
       id="path3489"
       inkscape:connector-curvature="0"
       inkscape:export-xdpi="90"
       inkscape:export-ydpi="90" />
  </g>
</svg>
